<svg width="1200" height="420" viewBox="0 0 1200 420" fill="none" xmlns="http://www.w3.org/2000/svg">
  <path d="M138 265C178 208 247 162 344 150L587 118C647 109 698 81 740 39L763 16H860L902 92C913 112 931 127 952 134L1025 160C1069 176 1105 210 1124 252L1151 314H1078C1060 356 1019 386 970 386C920 386 878 356 860 314H428C410 356 368 386 318 386C269 386 228 356 210 314H90C72 314 57 301 53 283C48 263 58 242 77 233L138 265Z" fill="#111827"/>
  <path d="M312 175L587 141C631 136 671 118 703 89L774 27H841L885 98C893 110 905 119 919 124L997 153C1019 161 1038 177 1050 198L1085 260H166L221 204C244 181 277 168 312 175Z" fill="#1F2937"/>
  <path d="M336 184L592 151C625 147 655 133 680 110L742 52H817L856 112C863 122 873 130 884 135L972 170C987 176 1000 186 1009 200L1032 234H270L295 208C306 196 321 187 336 184Z" fill="#CBD5E1"/>
  <path d="M334 194L580 162C609 158 636 146 659 127L730 70H805L846 128C852 136 860 142 869 147L943 176C955 181 965 189 973 200L988 219H297L314 205C320 200 327 196 334 194Z" fill="#F8FAFC"/>
  <circle cx="318" cy="313" r="60" fill="#111827"/>
  <circle cx="318" cy="313" r="30" fill="#E5E7EB"/>
  <circle cx="968" cy="313" r="60" fill="#111827"/>
  <circle cx="968" cy="313" r="30" fill="#E5E7EB"/>
  <path d="M403 221H544" stroke="#94A3B8" stroke-width="8" stroke-linecap="round"/>
  <path d="M595 202H700" stroke="#94A3B8" stroke-width="8" stroke-linecap="round"/>
</svg>
